<mxfile host="app.diagrams.net" modified="2020-12-16T23:34:33.049Z" agent="5.0 (Windows NT 10.0; Win64; x64) AppleWebKit/537.36 (KHTML, like Gecko) Chrome/87.0.4280.88 Safari/537.36" etag="EDUbaiHXmP4VKaQd8Qxi" version="14.0.4" type="github">
  <diagram id="limeG-FdhVhBkJljigsi" name="Page-1">
    <mxGraphModel dx="2272" dy="762" grid="1" gridSize="10" guides="1" tooltips="1" connect="1" arrows="1" fold="1" page="1" pageScale="1" pageWidth="850" pageHeight="1100" math="0" shadow="0">
      <root>
        <mxCell id="0" />
        <mxCell id="1" parent="0" />
        <mxCell id="sCpm-2gGpJ2XzQy8XPqo-12" style="edgeStyle=orthogonalEdgeStyle;rounded=0;orthogonalLoop=1;jettySize=auto;html=1;exitX=0.5;exitY=1;exitDx=0;exitDy=0;entryX=0;entryY=0.5;entryDx=0;entryDy=0;" edge="1" parent="1" source="sCpm-2gGpJ2XzQy8XPqo-1" target="sCpm-2gGpJ2XzQy8XPqo-11">
          <mxGeometry relative="1" as="geometry">
            <Array as="points">
              <mxPoint x="160" y="220" />
              <mxPoint x="400" y="220" />
              <mxPoint x="400" y="180" />
            </Array>
          </mxGeometry>
        </mxCell>
        <mxCell id="sCpm-2gGpJ2XzQy8XPqo-15" value="" style="group" vertex="1" connectable="0" parent="1">
          <mxGeometry x="120" y="140" width="240" height="60" as="geometry" />
        </mxCell>
        <mxCell id="sCpm-2gGpJ2XzQy8XPqo-1" value="&lt;u&gt;Regulation&lt;/u&gt;" style="rounded=0;whiteSpace=wrap;html=1;" vertex="1" parent="sCpm-2gGpJ2XzQy8XPqo-15">
          <mxGeometry y="20" width="80" height="40" as="geometry" />
        </mxCell>
        <mxCell id="sCpm-2gGpJ2XzQy8XPqo-2" value="Airplane" style="text;html=1;strokeColor=none;fillColor=none;align=center;verticalAlign=middle;whiteSpace=wrap;rounded=0;" vertex="1" parent="sCpm-2gGpJ2XzQy8XPqo-15">
          <mxGeometry width="80" height="20" as="geometry" />
        </mxCell>
        <mxCell id="sCpm-2gGpJ2XzQy8XPqo-3" value="Date" style="rounded=0;whiteSpace=wrap;html=1;" vertex="1" parent="sCpm-2gGpJ2XzQy8XPqo-15">
          <mxGeometry x="80" y="20" width="80" height="40" as="geometry" />
        </mxCell>
        <mxCell id="sCpm-2gGpJ2XzQy8XPqo-4" value="Airport" style="rounded=0;whiteSpace=wrap;html=1;" vertex="1" parent="sCpm-2gGpJ2XzQy8XPqo-15">
          <mxGeometry x="160" y="20" width="80" height="40" as="geometry" />
        </mxCell>
        <mxCell id="sCpm-2gGpJ2XzQy8XPqo-16" value="" style="group" vertex="1" connectable="0" parent="1">
          <mxGeometry x="440" y="140" width="320" height="60" as="geometry" />
        </mxCell>
        <mxCell id="sCpm-2gGpJ2XzQy8XPqo-9" value="&lt;u&gt;Dat&lt;/u&gt;" style="rounded=0;whiteSpace=wrap;html=1;" vertex="1" parent="sCpm-2gGpJ2XzQy8XPqo-16">
          <mxGeometry x="80" y="20" width="80" height="40" as="geometry" />
        </mxCell>
        <mxCell id="sCpm-2gGpJ2XzQy8XPqo-10" value="&lt;u&gt;Workco&lt;/u&gt;" style="rounded=0;whiteSpace=wrap;html=1;" vertex="1" parent="sCpm-2gGpJ2XzQy8XPqo-16">
          <mxGeometry x="160" y="20" width="80" height="40" as="geometry" />
        </mxCell>
        <mxCell id="sCpm-2gGpJ2XzQy8XPqo-11" value="&lt;u&gt;Reg&lt;/u&gt;" style="rounded=0;whiteSpace=wrap;html=1;" vertex="1" parent="sCpm-2gGpJ2XzQy8XPqo-16">
          <mxGeometry y="20" width="80" height="40" as="geometry" />
        </mxCell>
        <mxCell id="sCpm-2gGpJ2XzQy8XPqo-13" value="Service" style="text;html=1;strokeColor=none;fillColor=none;align=center;verticalAlign=middle;whiteSpace=wrap;rounded=0;" vertex="1" parent="sCpm-2gGpJ2XzQy8XPqo-16">
          <mxGeometry width="80" height="20" as="geometry" />
        </mxCell>
        <mxCell id="sCpm-2gGpJ2XzQy8XPqo-14" value="Hour" style="rounded=0;whiteSpace=wrap;html=1;" vertex="1" parent="sCpm-2gGpJ2XzQy8XPqo-16">
          <mxGeometry x="240" y="20" width="80" height="40" as="geometry" />
        </mxCell>
        <mxCell id="sCpm-2gGpJ2XzQy8XPqo-17" value="" style="group" vertex="1" connectable="0" parent="1">
          <mxGeometry x="120" y="300" width="240" height="60" as="geometry" />
        </mxCell>
        <mxCell id="sCpm-2gGpJ2XzQy8XPqo-5" value="&lt;u&gt;SSN&lt;/u&gt;" style="rounded=0;whiteSpace=wrap;html=1;" vertex="1" parent="sCpm-2gGpJ2XzQy8XPqo-17">
          <mxGeometry y="20" width="80" height="40" as="geometry" />
        </mxCell>
        <mxCell id="sCpm-2gGpJ2XzQy8XPqo-6" value="Employee" style="text;html=1;strokeColor=none;fillColor=none;align=center;verticalAlign=middle;whiteSpace=wrap;rounded=0;" vertex="1" parent="sCpm-2gGpJ2XzQy8XPqo-17">
          <mxGeometry width="80" height="20" as="geometry" />
        </mxCell>
        <mxCell id="sCpm-2gGpJ2XzQy8XPqo-7" value="Name" style="rounded=0;whiteSpace=wrap;html=1;" vertex="1" parent="sCpm-2gGpJ2XzQy8XPqo-17">
          <mxGeometry x="80" y="20" width="80" height="40" as="geometry" />
        </mxCell>
        <mxCell id="sCpm-2gGpJ2XzQy8XPqo-8" value="Add" style="rounded=0;whiteSpace=wrap;html=1;" vertex="1" parent="sCpm-2gGpJ2XzQy8XPqo-17">
          <mxGeometry x="160" y="20" width="80" height="40" as="geometry" />
        </mxCell>
        <mxCell id="sCpm-2gGpJ2XzQy8XPqo-20" style="edgeStyle=orthogonalEdgeStyle;rounded=0;orthogonalLoop=1;jettySize=auto;html=1;exitX=0.5;exitY=1;exitDx=0;exitDy=0;entryX=0;entryY=0.5;entryDx=0;entryDy=0;" edge="1" parent="1" source="sCpm-2gGpJ2XzQy8XPqo-18" target="sCpm-2gGpJ2XzQy8XPqo-5">
          <mxGeometry relative="1" as="geometry" />
        </mxCell>
        <mxCell id="sCpm-2gGpJ2XzQy8XPqo-18" value="&lt;u&gt;Social Sec Num&lt;/u&gt;" style="rounded=0;whiteSpace=wrap;html=1;" vertex="1" parent="1">
          <mxGeometry x="-160" y="240" width="80" height="40" as="geometry" />
        </mxCell>
        <mxCell id="sCpm-2gGpJ2XzQy8XPqo-19" value="Maintain" style="text;html=1;strokeColor=none;fillColor=none;align=center;verticalAlign=middle;whiteSpace=wrap;rounded=0;" vertex="1" parent="1">
          <mxGeometry x="-160" y="220" width="80" height="20" as="geometry" />
        </mxCell>
        <mxCell id="sCpm-2gGpJ2XzQy8XPqo-22" style="edgeStyle=orthogonalEdgeStyle;rounded=0;orthogonalLoop=1;jettySize=auto;html=1;exitX=0.5;exitY=0;exitDx=0;exitDy=0;entryX=0;entryY=0.5;entryDx=0;entryDy=0;" edge="1" parent="1" source="sCpm-2gGpJ2XzQy8XPqo-21" target="sCpm-2gGpJ2XzQy8XPqo-1">
          <mxGeometry relative="1" as="geometry" />
        </mxCell>
        <mxCell id="sCpm-2gGpJ2XzQy8XPqo-21" value="&lt;u&gt;Regul&lt;/u&gt;" style="rounded=0;whiteSpace=wrap;html=1;" vertex="1" parent="1">
          <mxGeometry x="-80" y="240" width="80" height="40" as="geometry" />
        </mxCell>
      </root>
    </mxGraphModel>
  </diagram>
</mxfile>
